<svg width="21" height="21" viewBox="0 0 21 21" fill="none" xmlns="http://www.w3.org/2000/svg">
<path d="M20.369 10.478C20.3698 9.79661 20.3118 9.11637 20.1956 8.4448H10.6998V12.296H16.1385C16.0273 12.9111 15.7917 13.4974 15.4461 14.0197C15.1005 14.5419 14.6519 14.9893 14.1275 15.3347V17.8346H17.3734C19.274 16.0944 20.369 13.5209 20.369 10.478Z" fill="#4285F4"/>
<path d="M10.6998 20.25C13.4171 20.25 15.705 19.3639 17.3734 17.8362L14.1275 15.3364C13.2241 15.9447 12.0605 16.2919 10.6998 16.2919C8.0734 16.2919 5.8442 14.5336 5.04706 12.1643H1.70325V14.7406C2.54132 16.3967 3.82641 17.7889 5.41506 18.7618C7.0037 19.7347 8.83336 20.2499 10.6998 20.25Z" fill="#34A853"/>
<path d="M5.04701 12.164C4.62559 10.9224 4.62559 9.57792 5.04701 8.33638V5.76012H1.7032C0.998184 7.15332 0.631012 8.69094 0.631012 10.2502C0.631012 11.8094 0.998184 13.347 1.7032 14.7402L5.04701 12.164Z" fill="#FBBC04"/>
<path d="M10.6998 4.20879C12.1357 4.18549 13.5233 4.72429 14.5624 5.70872L17.4363 2.85469C15.614 1.15488 13.1998 0.221659 10.6998 0.250656C8.83336 0.250741 7.0037 0.765984 5.41506 1.73886C3.82641 2.71174 2.54132 4.10397 1.70325 5.7601L5.04706 8.33636C5.8442 5.96704 8.0734 4.20879 10.6998 4.20879Z" fill="#EA4335"/>
</svg>
