<svg width="203" height="69" viewBox="0 0 203 69" fill="none" xmlns="http://www.w3.org/2000/svg">
<g clip-path="url(#clip0_1_33)">
<path d="M56.0254 19.6854L30.0127 4.7511L4 19.6854V33.0918L10.0187 29.6189V23.1411L30.0127 11.6625L50.0067 23.1411V25.7125L56.0254 22.2389V19.6854Z" fill="#23155B"/>
<path d="M50.0067 46.0971L30.0127 57.5757L10.0187 46.0971V40.3828L18.7957 35.3178L26.0771 39.5207L32.6855 35.7064L25.4033 31.5042L18.7949 27.6893L12.1865 31.5042L10.0208 32.7542L4.00214 36.2278V49.5522L30.0148 64.4864L56.0275 49.5522V36.1457L50.0089 39.6193L50.0067 46.0971Z" fill="#23155B"/>
<path d="M50.0067 28.8529L35.4072 37.2814L28.7988 41.0957L35.4072 44.9107L42.0155 41.0957L50.0045 36.485L56.0232 33.0114V25.38L50.0067 28.8529Z" fill="#8053FF"/>
</g>
<path d="M81.415 28.114L76.933 40.75H73.081L68.599 28.114H71.875L75.007 37.654L78.157 28.114H81.415ZM84.2494 29.662C83.7094 29.662 83.2654 29.506 82.9174 29.194C82.5814 28.87 82.4134 28.474 82.4134 28.006C82.4134 27.526 82.5814 27.13 82.9174 26.818C83.2654 26.494 83.7094 26.332 84.2494 26.332C84.7774 26.332 85.2094 26.494 85.5454 26.818C85.8934 27.13 86.0674 27.526 86.0674 28.006C86.0674 28.474 85.8934 28.87 85.5454 29.194C85.2094 29.506 84.7774 29.662 84.2494 29.662ZM85.7794 30.706V40.75H82.7014V30.706H85.7794ZM92.096 40.894C91.22 40.894 90.44 40.744 89.756 40.444C89.072 40.144 88.532 39.736 88.136 39.22C87.74 38.692 87.518 38.104 87.47 37.456H90.512C90.548 37.804 90.71 38.086 90.998 38.302C91.286 38.518 91.64 38.626 92.06 38.626C92.444 38.626 92.738 38.554 92.942 38.41C93.158 38.254 93.266 38.056 93.266 37.816C93.266 37.528 93.116 37.318 92.816 37.186C92.516 37.042 92.03 36.886 91.358 36.718C90.638 36.55 90.038 36.376 89.558 36.196C89.078 36.004 88.664 35.71 88.316 35.314C87.968 34.906 87.794 34.36 87.794 33.676C87.794 33.1 87.95 32.578 88.262 32.11C88.586 31.63 89.054 31.252 89.666 30.976C90.29 30.7 91.028 30.562 91.88 30.562C93.14 30.562 94.13 30.874 94.85 31.498C95.582 32.122 96.002 32.95 96.11 33.982H93.266C93.218 33.634 93.062 33.358 92.798 33.154C92.546 32.95 92.21 32.848 91.79 32.848C91.43 32.848 91.154 32.92 90.962 33.064C90.77 33.196 90.674 33.382 90.674 33.622C90.674 33.91 90.824 34.126 91.124 34.27C91.436 34.414 91.916 34.558 92.564 34.702C93.308 34.894 93.914 35.086 94.382 35.278C94.85 35.458 95.258 35.758 95.606 36.178C95.966 36.586 96.152 37.138 96.164 37.834C96.164 38.422 95.996 38.95 95.66 39.418C95.336 39.874 94.862 40.234 94.238 40.498C93.626 40.762 92.912 40.894 92.096 40.894ZM99.5951 29.662C99.0551 29.662 98.6111 29.506 98.2631 29.194C97.9271 28.87 97.7591 28.474 97.7591 28.006C97.7591 27.526 97.9271 27.13 98.2631 26.818C98.6111 26.494 99.0551 26.332 99.5951 26.332C100.123 26.332 100.555 26.494 100.891 26.818C101.239 27.13 101.413 27.526 101.413 28.006C101.413 28.474 101.239 28.87 100.891 29.194C100.555 29.506 100.123 29.662 99.5951 29.662ZM101.125 30.706V40.75H98.0471V30.706H101.125ZM107.928 40.894C106.944 40.894 106.056 40.684 105.264 40.264C104.484 39.844 103.866 39.244 103.41 38.464C102.966 37.684 102.744 36.772 102.744 35.728C102.744 34.696 102.972 33.79 103.428 33.01C103.884 32.218 104.508 31.612 105.3 31.192C106.092 30.772 106.98 30.562 107.964 30.562C108.948 30.562 109.836 30.772 110.628 31.192C111.42 31.612 112.044 32.218 112.5 33.01C112.956 33.79 113.184 34.696 113.184 35.728C113.184 36.76 112.95 37.672 112.482 38.464C112.026 39.244 111.396 39.844 110.592 40.264C109.8 40.684 108.912 40.894 107.928 40.894ZM107.928 38.23C108.516 38.23 109.014 38.014 109.422 37.582C109.842 37.15 110.052 36.532 110.052 35.728C110.052 34.924 109.848 34.306 109.44 33.874C109.044 33.442 108.552 33.226 107.964 33.226C107.364 33.226 106.866 33.442 106.47 33.874C106.074 34.294 105.876 34.912 105.876 35.728C105.876 36.532 106.068 37.15 106.452 37.582C106.848 38.014 107.34 38.23 107.928 38.23ZM120.937 30.598C122.113 30.598 123.049 30.982 123.745 31.75C124.453 32.506 124.807 33.55 124.807 34.882V40.75H121.747V35.296C121.747 34.624 121.573 34.102 121.225 33.73C120.877 33.358 120.409 33.172 119.821 33.172C119.233 33.172 118.765 33.358 118.417 33.73C118.069 34.102 117.895 34.624 117.895 35.296V40.75H114.817V30.706H117.895V32.038C118.207 31.594 118.627 31.246 119.155 30.994C119.683 30.73 120.277 30.598 120.937 30.598ZM130.238 34.414C130.238 33.166 130.508 32.056 131.048 31.084C131.588 30.1 132.338 29.338 133.298 28.798C134.27 28.246 135.368 27.97 136.592 27.97C138.092 27.97 139.376 28.366 140.444 29.158C141.512 29.95 142.226 31.03 142.586 32.398H139.202C138.95 31.87 138.59 31.468 138.122 31.192C137.666 30.916 137.144 30.778 136.556 30.778C135.608 30.778 134.84 31.108 134.252 31.768C133.664 32.428 133.37 33.31 133.37 34.414C133.37 35.518 133.664 36.4 134.252 37.06C134.84 37.72 135.608 38.05 136.556 38.05C137.144 38.05 137.666 37.912 138.122 37.636C138.59 37.36 138.95 36.958 139.202 36.43H142.586C142.226 37.798 141.512 38.878 140.444 39.67C139.376 40.45 138.092 40.84 136.592 40.84C135.368 40.84 134.27 40.57 133.298 40.03C132.338 39.478 131.588 38.716 131.048 37.744C130.508 36.772 130.238 35.662 130.238 34.414ZM143.859 35.71C143.859 34.678 144.051 33.772 144.435 32.992C144.831 32.212 145.365 31.612 146.037 31.192C146.709 30.772 147.459 30.562 148.287 30.562C148.995 30.562 149.613 30.706 150.141 30.994C150.681 31.282 151.095 31.66 151.383 32.128V30.706H154.461V40.75H151.383V39.328C151.083 39.796 150.663 40.174 150.123 40.462C149.595 40.75 148.977 40.894 148.269 40.894C147.453 40.894 146.709 40.684 146.037 40.264C145.365 39.832 144.831 39.226 144.435 38.446C144.051 37.654 143.859 36.742 143.859 35.71ZM151.383 35.728C151.383 34.96 151.167 34.354 150.735 33.91C150.315 33.466 149.799 33.244 149.187 33.244C148.575 33.244 148.053 33.466 147.621 33.91C147.201 34.342 146.991 34.942 146.991 35.71C146.991 36.478 147.201 37.09 147.621 37.546C148.053 37.99 148.575 38.212 149.187 38.212C149.799 38.212 150.315 37.99 150.735 37.546C151.167 37.102 151.383 36.496 151.383 35.728ZM159.766 32.128C160.066 31.66 160.48 31.282 161.008 30.994C161.536 30.706 162.154 30.562 162.862 30.562C163.69 30.562 164.44 30.772 165.112 31.192C165.784 31.612 166.312 32.212 166.696 32.992C167.092 33.772 167.29 34.678 167.29 35.71C167.29 36.742 167.092 37.654 166.696 38.446C166.312 39.226 165.784 39.832 165.112 40.264C164.44 40.684 163.69 40.894 162.862 40.894C162.166 40.894 161.548 40.75 161.008 40.462C160.48 40.174 160.066 39.802 159.766 39.346V45.538H156.688V30.706H159.766V32.128ZM164.158 35.71C164.158 34.942 163.942 34.342 163.51 33.91C163.09 33.466 162.568 33.244 161.944 33.244C161.332 33.244 160.81 33.466 160.378 33.91C159.958 34.354 159.748 34.96 159.748 35.728C159.748 36.496 159.958 37.102 160.378 37.546C160.81 37.99 161.332 38.212 161.944 38.212C162.556 38.212 163.078 37.99 163.51 37.546C163.942 37.09 164.158 36.478 164.158 35.71ZM170.453 29.662C169.913 29.662 169.469 29.506 169.121 29.194C168.785 28.87 168.617 28.474 168.617 28.006C168.617 27.526 168.785 27.13 169.121 26.818C169.469 26.494 169.913 26.332 170.453 26.332C170.981 26.332 171.413 26.494 171.749 26.818C172.097 27.13 172.271 27.526 172.271 28.006C172.271 28.474 172.097 28.87 171.749 29.194C171.413 29.506 170.981 29.662 170.453 29.662ZM171.983 30.706V40.75H168.905V30.706H171.983ZM179.811 38.14V40.75H178.245C177.129 40.75 176.259 40.48 175.635 39.94C175.011 39.388 174.699 38.494 174.699 37.258V33.262H173.475V30.706H174.699V28.258H177.777V30.706H179.793V33.262H177.777V37.294C177.777 37.594 177.849 37.81 177.993 37.942C178.137 38.074 178.377 38.14 178.713 38.14H179.811ZM180.914 35.71C180.914 34.678 181.106 33.772 181.49 32.992C181.886 32.212 182.42 31.612 183.092 31.192C183.764 30.772 184.514 30.562 185.342 30.562C186.05 30.562 186.668 30.706 187.196 30.994C187.736 31.282 188.15 31.66 188.438 32.128V30.706H191.516V40.75H188.438V39.328C188.138 39.796 187.718 40.174 187.178 40.462C186.65 40.75 186.032 40.894 185.324 40.894C184.508 40.894 183.764 40.684 183.092 40.264C182.42 39.832 181.886 39.226 181.49 38.446C181.106 37.654 180.914 36.742 180.914 35.71ZM188.438 35.728C188.438 34.96 188.222 34.354 187.79 33.91C187.37 33.466 186.854 33.244 186.242 33.244C185.63 33.244 185.108 33.466 184.676 33.91C184.256 34.342 184.046 34.942 184.046 35.71C184.046 36.478 184.256 37.09 184.676 37.546C185.108 37.99 185.63 38.212 186.242 38.212C186.854 38.212 187.37 37.99 187.79 37.546C188.222 37.102 188.438 36.496 188.438 35.728ZM196.82 27.43V40.75H193.742V27.43H196.82Z" fill="#23155B"/>
<defs>
<clipPath id="clip0_1_33">
<rect width="52.437" height="60" fill="white" transform="translate(4 4.75)"/>
</clipPath>
</defs>
</svg>
